HIERARCHY
ROOT Hips
{
	OFFSET 0.000000 35.082581 0.000000
	CHANNELS 6 Xposition Yposition Zposition Xrotation Yrotation Zrotation 
	JOINT Spine
	{
		OFFSET 0.000000 6.876099 0.125700
		CHANNELS 3 Xrotation Yrotation Zrotation
		JOINT Spine1
		{
			OFFSET 0.000000 5.730043 0.104720
			CHANNELS 3 Xrotation Yrotation Zrotation
			JOINT Spine1_split
			{
				OFFSET 0.000000 5.730043 0.104720
				CHANNELS 3 Xrotation Yrotation Zrotation
				JOINT Spine2
				{
					OFFSET 0.000000 5.730043 0.104720
					CHANNELS 3 Xrotation Yrotation Zrotation
					JOINT Neck
					{
						OFFSET 0.000000 10.314075 0.188496
						CHANNELS 3 Xrotation Yrotation Zrotation
						JOINT Head
						{
							OFFSET 0.000000 7.643700 -2.377400
							CHANNELS 3 Xrotation Yrotation Zrotation
							JOINT HeadTop_End
							{
								OFFSET 0.000000 43.788605 -13.619600
								CHANNELS 3 Xrotation Yrotation Zrotation
								End Site
								{
									OFFSET 0.000000 0.000000 0.000000
								}
							}
						}
					}
					JOINT LeftShoulder
					{
						OFFSET 2.196100 4.412489 0.087492
						CHANNELS 3 Xrotation Yrotation Zrotation
						JOINT LeftShoulder_split
						{
							OFFSET 2.196100 4.412489 0.087492
							CHANNELS 3 Xrotation Yrotation Zrotation
							JOINT LeftArm
							{
								OFFSET 8.771219 -2.981674 -0.026999
								CHANNELS 3 Xrotation Yrotation Zrotation
								JOINT LeftForeArm
								{
									OFFSET 8.512804 0.000000 -0.000000
									CHANNELS 3 Xrotation Yrotation Zrotation
									JOINT LeftHand
									{
										OFFSET 18.484802 0.000000 -0.000000
										CHANNELS 3 Xrotation Yrotation Zrotation
										JOINT LeftHandThumb1
										{
											OFFSET 2.499420 -1.158070 2.653252
											CHANNELS 3 Xrotation Yrotation Zrotation
											JOINT LeftHandThumb2
											{
												OFFSET 2.370079 -1.368366 1.368366
												CHANNELS 3 Xrotation Yrotation Zrotation
												JOINT LeftHandThumb3
												{
													OFFSET 2.676727 -1.545410 1.545409
													CHANNELS 3 Xrotation Yrotation Zrotation
													JOINT LeftHandThumb4
													{
														OFFSET 1.692226 -0.977005 0.977007
														CHANNELS 3 Xrotation Yrotation Zrotation
														End Site
														{
															OFFSET 0.000000 0.000000 0.000000
														}
													}
												}
											}
										}
										JOINT LeftHandIndex1
										{
											OFFSET 7.924831 -0.457527 2.345128
											CHANNELS 3 Xrotation Yrotation Zrotation
											JOINT LeftHandIndex2
											{
												OFFSET 3.643303 0.000000 0.000000
												CHANNELS 3 Xrotation Yrotation Zrotation
												JOINT LeftHandIndex3
												{
													OFFSET 3.810799 0.000000 0.000000
													CHANNELS 3 Xrotation Yrotation Zrotation
													JOINT LeftHandIndex4
													{
														OFFSET 2.403702 0.000000 0.000000
														CHANNELS 3 Xrotation Yrotation Zrotation
														End Site
														{
															OFFSET 0.000000 0.000000 0.000000
														}
													}
												}
											}
										}
										JOINT LeftHandMiddle1
										{
											OFFSET 8.563995 0.000000 -0.000000
											CHANNELS 3 Xrotation Yrotation Zrotation
											JOINT LeftHandMiddle2
											{
												OFFSET 3.861618 0.000000 0.000000
												CHANNELS 3 Xrotation Yrotation Zrotation
												JOINT LeftHandMiddle3
												{
													OFFSET 3.701603 0.000000 0.000000
													CHANNELS 3 Xrotation Yrotation Zrotation
													JOINT LeftHandMiddle4
													{
														OFFSET 2.322544 0.000000 0.000000
														CHANNELS 3 Xrotation Yrotation Zrotation
														End Site
														{
															OFFSET 0.000000 0.000000 0.000000
														}
													}
												}
											}
										}
										JOINT LeftHandRing1
										{
											OFFSET 8.426460 -0.424637 -3.286992
											CHANNELS 3 Xrotation Yrotation Zrotation
											JOINT LeftHandRing2
											{
												OFFSET 3.126408 0.000000 0.000000
												CHANNELS 3 Xrotation Yrotation Zrotation
												JOINT LeftHandRing3
												{
													OFFSET 3.085026 0.000000 0.000000
													CHANNELS 3 Xrotation Yrotation Zrotation
													JOINT LeftHandRing4
													{
														OFFSET 1.644005 0.000000 0.000000
														CHANNELS 3 Xrotation Yrotation Zrotation
														End Site
														{
															OFFSET 0.000000 0.000000 0.000000
														}
													}
												}
											}
										}
									}
								}
							}
						}
					}
					JOINT RightShoulder
					{
						OFFSET -2.196100 4.412496 0.070690
						CHANNELS 3 Xrotation Yrotation Zrotation
						JOINT RightShoulder_split
						{
							OFFSET -2.196100 4.412496 0.070690
							CHANNELS 3 Xrotation Yrotation Zrotation
							JOINT RightArm
							{
								OFFSET -8.771282 -2.981682 -0.094208
								CHANNELS 3 Xrotation Yrotation Zrotation
								JOINT RightForeArm
								{
									OFFSET -8.494598 0.000000 0.000000
									CHANNELS 3 Xrotation Yrotation Zrotation
									JOINT RightHand
									{
										OFFSET -18.483803 0.000000 0.000001
										CHANNELS 3 Xrotation Yrotation Zrotation
										JOINT RightHandThumb1
										{
											OFFSET -2.527351 -1.008072 2.575253
											CHANNELS 3 Xrotation Yrotation Zrotation
											JOINT RightHandThumb2
											{
												OFFSET -2.321518 -1.340328 1.340329
												CHANNELS 3 Xrotation Yrotation Zrotation
												JOINT RightHandThumb3
												{
													OFFSET -2.657753 -1.534454 1.534455
													CHANNELS 3 Xrotation Yrotation Zrotation
													JOINT RightHandThumb4
													{
														OFFSET -1.807510 -1.043568 1.043567
														CHANNELS 3 Xrotation Yrotation Zrotation
														End Site
														{
															OFFSET 0.000000 0.000000 0.000000
														}
													}
												}
											}
										}
										JOINT RightHandIndex1
										{
											OFFSET -8.811420 0.015533 2.887987
											CHANNELS 3 Xrotation Yrotation Zrotation
											JOINT RightHandIndex2
											{
												OFFSET -3.537502 0.000000 0.000000
												CHANNELS 3 Xrotation Yrotation Zrotation
												JOINT RightHandIndex3
												{
													OFFSET -3.356201 0.000000 0.000000
													CHANNELS 3 Xrotation Yrotation Zrotation
													JOINT RightHandIndex4
													{
														OFFSET -1.933098 0.000000 0.000000
														CHANNELS 3 Xrotation Yrotation Zrotation
														End Site
														{
															OFFSET 0.000000 0.000000 0.000000
														}
													}
												}
											}
										}
										JOINT RightHandMiddle1
										{
											OFFSET -8.178135 0.000000 0.000000
											CHANNELS 3 Xrotation Yrotation Zrotation
											JOINT RightHandMiddle2
											{
												OFFSET -3.901302 0.000000 0.000000
												CHANNELS 3 Xrotation Yrotation Zrotation
												JOINT RightHandMiddle3
												{
													OFFSET -3.909599 0.000000 0.000000
													CHANNELS 3 Xrotation Yrotation Zrotation
													JOINT RightHandMiddle4
													{
														OFFSET -2.376003 0.000000 0.000000
														CHANNELS 3 Xrotation Yrotation Zrotation
														End Site
														{
															OFFSET 0.000000 0.000000 0.000000
														}
													}
												}
											}
										}
										JOINT RightHandRing1
										{
											OFFSET -7.559013 0.014137 -2.865403
											CHANNELS 3 Xrotation Yrotation Zrotation
											JOINT RightHandRing2
											{
												OFFSET -3.449306 0.000000 0.000000
												CHANNELS 3 Xrotation Yrotation Zrotation
												JOINT RightHandRing3
												{
													OFFSET -3.362106 0.000000 0.000000
													CHANNELS 3 Xrotation Yrotation Zrotation
													JOINT RightHandRing4
													{
														OFFSET -2.076401 0.000000 0.000000
														CHANNELS 3 Xrotation Yrotation Zrotation
														End Site
														{
															OFFSET 0.000000 0.000000 0.000000
														}
													}
												}
											}
										}
									}
								}
							}
						}
					}
				}
			}
		}
	}
	JOINT LeftUpLeg
	{
		OFFSET 10.205400 -3.823500 0.155100
		CHANNELS 3 Xrotation Yrotation Zrotation
		JOINT LeftLeg
		{
			OFFSET 0.708757 -12.982077 0.567790
			CHANNELS 3 Xrotation Yrotation Zrotation
			JOINT LeftFoot
			{
				OFFSET -0.708756 -10.717838 -2.184338
				CHANNELS 3 Xrotation Yrotation Zrotation
				JOINT LeftToeBase
				{
					OFFSET 0.108149 -7.191104 7.560241
					CHANNELS 3 Xrotation Yrotation Zrotation
					JOINT LeftToe_End
					{
						OFFSET 0.070230 0.081724 4.490308
						CHANNELS 3 Xrotation Yrotation Zrotation
						End Site
						{
							OFFSET 0.000000 0.000000 0.000000
						}
					}
				}
			}
		}
	}
	JOINT RightUpLeg
	{
		OFFSET -10.205400 -3.823500 0.005500
		CHANNELS 3 Xrotation Yrotation Zrotation
		JOINT RightLeg
		{
			OFFSET -0.708756 -12.982134 0.610632
			CHANNELS 3 Xrotation Yrotation Zrotation
			JOINT RightFoot
			{
				OFFSET 0.708754 -10.717769 -1.945823
				CHANNELS 3 Xrotation Yrotation Zrotation
				JOINT RightToeBase
				{
					OFFSET -0.108140 -7.191069 7.372968
					CHANNELS 3 Xrotation Yrotation Zrotation
					JOINT RightToe_End
					{
						OFFSET -0.070227 0.081735 4.479403
						CHANNELS 3 Xrotation Yrotation Zrotation
						End Site
						{
							OFFSET 0.000000 0.000000 0.000000
						}
					}
				}
			}
		}
	}
}
MOTION
Frames: 6
Frame Time: 0.016667
2.168910 53.483826 137.757339 6.673144 -36.942103 20.158921 36.630663 4.816569 -28.683957 10.113541 4.487081 -5.651612 0.000000 0.000000 0.000000 17.344350 -0.255004 0.868256 -12.219173 18.249670 -13.297131 -37.838664 -7.524092 1.760362 0.000000 -0.000000 -0.000000 3.460658 -8.918316 -0.904787 0.000000 0.000000 0.000000 -83.626821 1.219628 -12.071370 -339.578318 -61.813110 -343.756481 -7.849520 9.865832 25.085418 17.551583 -5.699193 -12.932232 10.850553 26.127712 8.644747 20.927020 51.115831 0.218678 -0.000000 -0.000000 -0.000004 13.980882 1.201566 -55.004381 0.370810 1.161734 -65.441893 1.983984 2.148010 -57.665108 -0.000000 -0.000002 -0.000002 7.504728 1.174526 -63.778524 1.807877 1.475670 -64.568019 0.130351 -0.912276 -43.272493 0.000000 0.000001 0.000003 8.574304 2.179172 -75.148979 -0.207618 1.009280 -57.855076 0.443040 1.742149 -53.581311 0.000000 -0.000004 0.000002 7.814366 26.927353 -8.074475 0.000000 0.000000 0.000000 -63.242730 -8.464390 33.803603 -75.905463 19.956797 56.360238 103.847815 -11.344610 -4.184658 -0.360662 0.058174 -0.543030 4.001300 -8.596764 -1.236481 3.857194 -10.852864 -1.955300 -0.000002 -0.000005 -0.000000 1.178593 -0.282678 1.711502 -0.146684 -0.226843 7.547518 -0.127795 -0.395039 -2.757507 -0.000002 0.000005 -0.000003 3.352589 -1.937782 -0.812881 0.311552 -0.271377 28.365055 0.039960 -0.084921 -11.190829 0.000002 0.000002 -0.000006 2.261838 -7.957684 2.165577 0.288155 -0.079110 26.161657 0.173933 -0.165776 10.463106 0.000003 0.000001 0.000002 -81.812491 -3.606424 12.361328 122.931357 34.177218 12.537161 -43.454329 7.157108 -4.249319 1.256087 -2.508912 -0.302522 0.000002 -0.000000 -0.000000 -98.650150 -34.692532 4.949470 109.881823 7.116155 1.756335 13.917258 6.367930 3.995317 2.169773 0.173840 -1.568282 0.000000 0.000001 0.000002 
1.948519 53.237061 140.459122 8.109906 -36.545491 20.712767 36.352046 4.886759 -28.167934 10.417182 4.343064 -5.637412 0.000000 0.000000 0.000000 17.590076 -0.300817 0.846443 -11.986786 17.712578 -13.403262 -38.648701 -7.453904 1.396194 0.000001 -0.000000 0.000000 3.732742 -8.938855 -0.897995 0.000000 0.000000 0.000000 -82.664051 -0.098880 -10.383340 -346.709828 -62.155111 -350.113940 -8.715356 8.791306 25.759001 17.551585 -5.699192 -12.932233 10.850556 26.127717 8.644745 20.927018 51.115821 0.218686 -0.000005 -0.000000 -0.000004 13.980884 1.201566 -55.004381 0.370809 1.161739 -65.441893 1.983982 2.148011 -57.665102 0.000000 0.000001 -0.000001 7.504728 1.174527 -63.778517 1.807878 1.475670 -64.568019 0.130348 -0.912278 -43.272503 -0.000002 -0.000001 -0.000002 8.574305 2.179171 -75.148979 -0.207623 1.009277 -57.855070 0.443038 1.742150 -53.581314 -0.000001 0.000001 -0.000000 7.302805 26.569091 -6.881564 0.000000 0.000000 0.000000 -60.118219 -8.940511 34.394124 -76.312741 20.173447 58.156616 101.670269 -13.677695 -5.595364 -0.360547 0.058175 -0.542847 4.001309 -8.596765 -1.236487 3.857317 -10.852880 -1.955042 -0.000001 -0.000002 0.000005 1.178584 -0.282232 0.826520 -0.148750 -0.225338 6.662552 -0.127653 -0.393677 -3.642507 0.000000 -0.000000 0.000002 3.352640 -1.937376 -1.697910 0.311850 -0.272014 27.480085 0.039188 -0.085494 -12.075801 0.000000 -0.000001 0.000002 2.261800 -7.957263 1.280576 0.287417 -0.081010 25.276664 0.173459 -0.167226 9.578136 0.000001 -0.000001 0.000002 -78.186419 -3.336663 15.188669 120.572100 29.345710 11.426810 -46.352819 7.587241 -4.547029 1.268340 -2.454953 -0.300039 0.000000 0.000000 -0.000003 -97.355611 -33.374948 5.878728 100.018449 9.856143 4.779495 10.606507 5.912746 4.795181 1.921212 0.153599 -1.387528 0.000001 0.000000 -0.000003 
1.707609 52.834133 143.087143 9.444527 -36.006845 21.123385 35.869176 5.002334 -27.540959 10.724735 4.198463 -5.583330 0.000000 0.000000 0.000000 17.800938 -0.342642 0.829320 -11.305840 16.957792 -13.348734 -39.456121 -7.132159 0.943232 0.000002 -0.000000 -0.000000 4.015680 -8.916299 -0.887830 0.000000 0.000000 0.000000 -82.276787 -1.094243 -8.977279 -352.924863 -62.243630 -355.786057 -9.353952 7.465118 26.072471 17.551585 -5.699186 -12.932232 10.850550 26.127712 8.644748 20.927022 51.115821 0.218678 -0.000004 0.000001 -0.000002 13.980885 1.201573 -55.004374 0.370810 1.161733 -65.441893 1.983986 2.148011 -57.665108 0.000000 -0.000002 0.000003 7.504728 1.174533 -63.778517 1.807876 1.475669 -64.568012 0.130349 -0.912276 -43.272493 0.000002 -0.000000 0.000001 8.574302 2.179178 -75.148979 -0.207622 1.009278 -57.855070 0.443034 1.742149 -53.581311 0.000001 0.000002 -0.000001 6.746340 26.067583 -5.641313 0.000000 0.000000 0.000000 -56.516486 -9.132702 35.083912 -76.680642 20.592547 59.887058 98.889029 -15.813129 -7.286381 -0.360436 0.058161 -0.542652 4.001305 -8.596743 -1.236510 3.857422 -10.852897 -1.954825 -0.000000 0.000001 0.000002 1.177318 -0.281985 0.225301 -0.150308 -0.224055 6.061322 -0.127544 -0.392720 -4.243664 0.000001 -0.000002 0.000001 3.352824 -1.937098 -2.299105 0.310513 -0.273229 26.878864 0.038616 -0.085981 -12.677021 -0.000001 0.000000 -0.000002 2.261807 -7.956960 0.679365 0.286937 -0.082359 24.675510 0.173211 -0.168269 8.976936 -0.000001 -0.000000 0.000001 -75.410671 -3.444027 16.477574 117.141542 26.299483 11.073169 -47.100134 8.030377 -5.240192 1.278422 -2.397611 -0.303842 -0.000002 -0.000001 0.000003 -94.326941 -29.968961 6.143265 87.969667 12.249068 9.234272 8.856591 5.181165 6.136259 1.659987 0.132324 -1.199297 0.000000 0.000001 -0.000003 
1.496362 52.269733 145.561066 10.681385 -35.406116 21.418684 35.198649 5.199944 -26.859939 11.018724 4.045010 -5.488550 0.000000 0.000000 0.000000 17.963812 -0.390537 0.823579 -10.228580 16.066914 -13.225071 -40.188905 -6.646899 0.502570 0.000002 0.000000 -0.000000 4.292259 -8.864044 -0.877226 0.000000 0.000000 0.000000 -82.115314 -1.901203 -7.653546 -358.213041 -62.124443 -360.712208 -10.044895 6.053072 26.102963 17.551580 -5.699192 -12.932233 10.850551 26.127712 8.644748 20.927023 51.115821 0.218678 -0.000002 0.000000 0.000003 13.980884 1.201568 -55.004377 0.370814 1.161733 -65.441887 1.983989 2.148013 -57.665108 0.000000 0.000003 -0.000002 7.504730 1.174530 -63.778517 1.807876 1.475670 -64.568019 0.130350 -0.912275 -43.272496 -0.000000 -0.000001 -0.000000 8.574304 2.179172 -75.148979 -0.207625 1.009275 -57.855070 0.443037 1.742151 -53.581318 0.000001 0.000001 -0.000000 6.167942 25.450323 -4.367983 0.000000 0.000000 0.000000 -52.538290 -9.038841 35.874380 -76.979135 21.195499 61.458978 95.621508 -17.694148 -9.145791 -0.360332 0.058169 -0.542500 4.001300 -8.596760 -1.236511 3.857518 -10.852906 -1.954635 0.000002 -0.000002 -0.000000 1.177753 -0.281643 -0.050762 -0.149897 -0.223229 5.785279 -0.128238 -0.392171 -4.519785 0.000000 -0.000001 -0.000002 3.353000 -1.936999 -2.575188 0.309742 -0.272597 26.602825 0.039250 -0.086791 -12.953103 -0.000000 0.000001 0.000002 2.262882 -7.956890 0.403456 0.287548 -0.082924 24.399406 0.173127 -0.168775 8.700841 0.000000 -0.000001 0.000001 -73.441848 -3.723221 17.367556 113.012440 24.124259 11.097213 -46.960023 8.360146 -5.989837 1.286346 -2.336820 -0.314064 0.000001 -0.000001 0.000000 -90.462242 -24.515200 6.617827 75.386280 11.896151 14.111588 9.876996 4.246921 7.828677 1.393523 0.110550 -1.006218 0.000000 -0.000001 0.000003 
1.285187 51.526489 147.904022 11.790541 -34.743676 21.632271 34.356186 5.433037 -26.152067 11.281689 3.874415 -5.352228 0.000000 0.000000 0.000000 18.065642 -0.454592 0.835907 -8.804495 15.105841 -13.118125 -40.783876 -6.073325 0.161761 0.000000 0.000000 0.000000 4.491561 -8.733911 -0.871744 0.000000 0.000000 0.000000 -81.674781 -2.197588 -6.386324 -362.687198 -62.302486 -364.885863 -11.003425 4.552276 26.057556 17.551582 -5.699189 -12.932234 10.850550 26.127712 8.644748 20.927032 51.115831 0.218673 -0.000002 0.000001 -0.000000 13.980886 1.201570 -55.004381 0.370810 1.161733 -65.441893 1.983990 2.148012 -57.665108 -0.000000 0.000001 0.000001 7.504729 1.174529 -63.778517 1.807876 1.475671 -64.568019 0.130349 -0.912277 -43.272493 0.000002 0.000002 -0.000001 8.574306 2.179172 -75.148979 -0.207627 1.009270 -57.855063 0.443038 1.742151 -53.581318 0.000000 -0.000000 0.000000 5.587816 24.745914 -3.074825 0.000000 0.000000 0.000000 -48.292812 -8.678172 36.751489 -77.194450 21.926475 62.804033 91.988557 -18.985670 -11.133756 -0.360249 0.058172 -0.542395 4.001302 -8.596754 -1.236515 3.857586 -10.852908 -1.954501 -0.000000 -0.000000 -0.000000 1.177767 -0.281674 -0.001234 -0.149643 -0.223097 5.834812 -0.128192 -0.392134 -4.470276 -0.000001 -0.000000 0.000001 3.353084 -1.937007 -2.525649 0.309749 -0.272332 26.652337 0.039228 -0.087184 -12.903571 0.000001 0.000002 -0.000002 2.262830 -7.956886 0.452966 0.287606 -0.082695 24.448922 0.173068 -0.168777 8.750369 0.000000 0.000000 -0.000001 -72.324784 -4.227980 18.208837 108.986515 21.851985 11.003944 -46.196418 8.275704 -6.258777 1.291769 -2.273244 -0.329981 0.000002 0.000000 -0.000006 -86.385999 -17.434083 6.914942 63.224158 8.438682 17.931263 12.164304 4.573631 10.328738 1.129762 0.089278 -0.815988 0.000000 0.000001 0.000000 
1.077767 50.646599 150.059280 12.812677 -34.167478 21.747394 33.359300 5.839051 -25.455627 11.496446 3.678319 -5.173559 0.000000 0.000000 0.000000 18.093497 -0.544866 0.872987 -7.085770 14.137226 -13.131159 -41.181355 -5.490141 0.017710 0.000001 0.000000 0.000000 4.628201 -8.537109 -0.869814 0.000000 0.000000 0.000000 -81.008550 -2.194273 -5.076147 -366.354845 -62.591341 -368.346993 -12.335325 2.974211 25.872970 17.551580 -5.699193 -12.932232 10.850550 26.127716 8.644748 20.927022 51.115821 0.218678 0.000000 -0.000002 -0.000000 13.980887 1.201563 -55.004377 0.370811 1.161734 -65.441893 1.983988 2.148009 -57.665102 -0.000000 0.000001 -0.000002 7.504728 1.174526 -63.778517 1.807880 1.475666 -64.568019 0.130349 -0.912279 -43.272496 -0.000002 0.000002 -0.000002 8.574301 2.179171 -75.148979 -0.207619 1.009276 -57.855070 0.443035 1.742145 -53.581314 -0.000000 0.000002 0.000000 5.022817 23.984206 -1.773816 0.000000 0.000000 0.000000 -43.895324 -8.087580 37.705137 -77.297702 22.755463 63.861845 88.157217 -19.416464 -13.174251 -0.360177 0.058190 -0.542299 4.001308 -8.596759 -1.236541 3.857641 -10.852909 -1.954367 0.000000 -0.000000 0.000001 1.177437 -0.282014 0.327617 -0.149521 -0.223624 6.163651 -0.127527 -0.392580 -4.141381 0.000001 -0.000002 0.000001 3.353094 -1.937138 -2.196789 0.310323 -0.272418 26.981187 0.038696 -0.087328 -12.574706 -0.000000 -0.000000 -0.000001 2.261822 -7.956998 0.781680 0.287168 -0.081854 24.777766 0.173038 -0.168271 9.079271 0.000000 0.000001 0.000002 -71.721043 -4.932887 19.548734 104.605187 19.354888 10.636401 -44.447063 8.017003 -6.478827 1.293993 -2.206952 -0.350436 0.000002 -0.000000 -0.000005 -81.777001 -10.251127 6.429884 52.803735 3.538495 20.285544 14.967204 4.280605 11.345686 0.876018 0.068414 -0.632442 -0.000002 0.000000 -0.000002 
